<svg xmlns="http://www.w3.org/2000/svg" version="1.1" xmlns:xlink="http://www.w3.org/1999/xlink" xmlns:svgjs="http://svgjs.dev/svgjs" width="1500" height="1500" viewBox="0 0 1500 1500"><rect width="1500" height="1500" fill="#ffffff"></rect><g transform="matrix(0.4319654427645788,0,0,0.4319654427645788,426.5383491709236,250.40485829959516)"><svg viewBox="0 0 160 247" data-background-color="#f2f0e4" preserveAspectRatio="xMidYMid meet" height="2315" width="1500" xmlns="http://www.w3.org/2000/svg" xmlns:xlink="http://www.w3.org/1999/xlink"><g id="tight-bounds" transform="matrix(1,0,0,1,-0.12653635527340157,-0.09999999999999432)"><svg viewBox="0 0 160.25307271054683 247.2" height="247.2" width="160.25307271054683"><g><svg viewBox="0 0 397.4975999999999 613.163947860658" height="247.2" width="160.25307271054683"><g><rect width="397.4975999999999" height="15.44156989498953" x="0" y="257.69527784028674" fill="#000000" opacity="1" stroke-width="0" stroke="transparent" fill-opacity="1" class="rect-qz-0" data-fill-palette-color="primary" rx="1%" id="qz-0" data-palette-color="#3d3028"></rect></g><g><rect width="397.4975999999999" height="15.44156989498953" x="0" y="293.3483266554196" fill="#000000" opacity="1" stroke-width="0" stroke="transparent" fill-opacity="1" class="rect-qz-1" data-fill-palette-color="primary" rx="1%" id="qz-1" data-palette-color="#3d3028"></rect></g><g transform="matrix(1,0,0,1,0.9887999999999693,349.21285439069584)"><svg viewBox="0 0 395.52 263.9510934699621" height="263.9510934699621" width="395.52"><g id="textblocktransform"><svg viewBox="0 0 395.52 263.9510934699621" height="263.9510934699621" width="395.52" id="textblock"><g><svg viewBox="0 0 395.52 171.228578255675" height="171.228578255675" width="395.52"><g transform="matrix(1,0,0,1,0,0)"><svg width="395.52" viewBox="1.75 -35.9 125.54 54.353125" height="171.228578255675" data-palette-color="#3d3028"><path d="M18.8-12.6Q18.65-9 18.3-7.15 17.95-5.3 16.93-3.63 15.9-1.95 13.6 0.25L13.6 0.25 15.35 1.2Q16.95 2.1 17.7 2.45L17.7 2.45Q19.95 3.5 21.1 5.13 22.25 6.75 22.25 8.7L22.25 8.7Q22.25 11.1 20.65 13.45L20.65 13.45Q18.95 15.95 16.4 17.18 13.85 18.4 10.95 18.45L10.95 18.45Q8.8 18.5 6.55 17.75L6.55 17.75Q5.5 17.4 4.45 16.23 3.4 15.05 2.78 13.6 2.15 12.15 2.2 11.05L2.2 11.05Q2.25 10.8 2.4 10.53 2.55 10.25 2.75 10.2L2.75 10.2Q2.8 10.15 2.95 10.15L2.95 10.15Q3.1 10.15 3.38 10.28 3.65 10.4 3.75 10.45L3.75 10.45Q4 10.55 4.1 10.9L4.1 10.9Q4.8 12.45 5.65 13.35 6.5 14.25 7.9 14.15L7.9 14.15Q13.05 13.8 14.95 11.3L14.95 11.3Q15.6 10.5 16.03 9.47 16.45 8.45 16.45 7.55L16.45 7.55Q16.45 6.25 15.83 5.65 15.2 5.05 13.9 4.8L13.9 4.8Q12.5 4.55 11.23 4.1 9.95 3.65 8.15 2.75L8.15 2.75Q7.25 2.3 6.9 1.95 6.55 1.6 6.55 1.1L6.55 1.1Q6.55 0.6 7.15-1.45L7.15-1.45Q7.25-1.75 6.23-2.45 5.2-3.15 4.45-3.6L4.45-3.6Q1.75-5.2 1.75-8.8L1.75-8.8Q1.75-9.8 1.9-10.7L1.9-10.7Q2.8-16.2 7.25-18.5L7.25-18.5Q8.3-19.05 9.45-19.05L9.45-19.05Q10.3-19.05 11.2-18.8 12.1-18.55 12.25-18.5L12.25-18.5 13.3-18.2Q14.05-18 14.75-18L14.75-18Q15.7-18 16.48-18.35 17.25-18.7 18.05-19.45L18.05-19.45Q19.2-20.4 20.5-20.4L20.5-20.4Q21.45-20.4 22.2-19.88 22.95-19.35 23.3-18.35L23.3-18.35Q23.4-17.95 23.4-17.7L23.4-17.7Q23.4-17.25 23.25-17L23.25-17Q23.1-16.8 22.4-15.7L22.4-15.7Q22.05-15.05 21.75-14.6 21.45-14.15 20.8-13.6L20.8-13.6Q20.35-13.35 19.85-13.23 19.35-13.1 19.07-13 18.8-12.9 18.8-12.6L18.8-12.6ZM8.3-13.35Q6.75-11.55 6.75-9.7L6.75-9.7Q6.75-8.4 7.58-7.23 8.4-6.05 10.1-5.2L10.1-5.2Q12-5.95 13.05-7.8 14.1-9.65 14.1-11.85L14.1-11.85Q14.1-13.2 13.7-14.3 13.3-15.4 12.1-16L12.1-16Q9.8-15.1 8.3-13.35L8.3-13.35ZM41.75-2.55Q41.3-2.75 40.85-2.75L40.85-2.75Q40.4-2.75 40.07-2.53 39.75-2.3 39.35-1.85L39.35-1.85Q38.75-1.25 38.1-0.85L38.1-0.85Q37.5-0.5 35.9-0.2L35.9-0.2Q35.2-0.1 34.75-0.1L34.75-0.1Q32.65-0.1 30.37-1.03 28.1-1.95 27.15-3.25L27.15-3.25Q26.15-4.65 26.2-6.25L26.2-6.25Q26.25-8.65 28.2-11.05L28.2-11.05Q30.1-13.35 31.67-14.3 33.25-15.25 36-15.5L36-15.5Q36.6-15.5 37.72-15.7 38.85-15.9 38.85-16.25L38.85-16.25Q38.85-16.95 38.22-17.53 37.6-18.1 35.7-18.1L35.7-18.1Q35-18.1 33.6-18L33.6-18Q32.2-17.9 31.65-17.9L31.65-17.9Q29.95-17.9 29.2-18.45L29.2-18.45Q29-18.55 29-19.4L29-19.4Q29-20.9 30.05-21.3L30.05-21.3Q32.2-22.1 34.5-22.15L34.5-22.15Q37.4-22.15 39.87-20.88 42.35-19.6 43.5-17.7L43.5-17.7Q44.65-15.8 45-12.45L45-12.45Q45.4-8.7 45.4-2.9L45.4-2.9Q45.4-1.3 44.95-1.05L44.95-1.05Q44.55-0.8 44.2-0.8L44.2-0.8Q43.75-0.8 43.37-1.07 43-1.35 42.55-1.85L42.55-1.85Q42.1-2.4 41.75-2.55L41.75-2.55ZM33.85-3.15Q36.2-3.85 38.45-5.4L38.45-5.4Q38.95-5.75 39.35-6.3 39.75-6.85 39.85-7L39.85-7Q39.95-7.15 40.02-7.88 40.1-8.6 40.05-9.05L40.05-9.05Q40-9.2 39.87-9.85 39.75-10.5 39.5-11L39.5-11Q39.25-11.4 38.7-11.75 38.15-12.1 37.7-12.05L37.7-12.05Q36.75-12 35.65-11.35 34.55-10.7 33.6-9.6L33.6-9.6Q32.65-8.45 32.12-7.28 31.6-6.1 31.6-5.1L31.6-5.1Q31.7-3.75 32.35-3.3L32.35-3.3Q32.7-3.05 33.2-3.05L33.2-3.05Q33.6-3.05 33.85-3.15L33.85-3.15ZM56.45-2.3Q57.45-3.5 57.9-4.2L57.9-4.2Q58.45-4.95 59.05-4.95L59.05-4.95Q59.65-4.95 59.95-4.2L59.95-4.2Q60.65-2.2 60.65-1.05L60.65-1.05Q60.65-0.55 60.6-0.3L60.6-0.3Q60.4 0.7 59.47 1.1 58.55 1.5 57.3 1.4L57.3 1.4Q56.85 1.4 55.77 1.4 54.7 1.4 53.92 1.1 53.15 0.8 52.55 0.1L52.55 0.1Q51.25-1.45 51.25-2.9L51.25-2.9Q51.25-14.6 51.15-20.5L51.15-20.5 51.1-29.3Q51.1-31.05 50.75-32.5L50.75-32.5Q50.7-32.75 50.7-33.1L50.7-33.1Q50.7-34.95 53.2-34.95L53.2-34.95Q54.85-34.95 55.97-33.88 57.1-32.8 57-31.05L57-31.05Q56.85-28.4 56.6-23.1L56.6-23.1 56.3-17.1Q55.9-8.6 55.75-4.35L55.75-4.35Q55.7-3.85 55.8-3.25 55.9-2.65 55.95-2.5L55.95-2.5 56.45-2.3ZM79.44-2.55Q78.99-2.75 78.54-2.75L78.54-2.75Q78.09-2.75 77.77-2.53 77.44-2.3 77.04-1.85L77.04-1.85Q76.44-1.25 75.79-0.85L75.79-0.85Q75.19-0.5 73.59-0.2L73.59-0.2Q72.89-0.1 72.44-0.1L72.44-0.1Q70.34-0.1 68.07-1.03 65.79-1.95 64.84-3.25L64.84-3.25Q63.84-4.65 63.89-6.25L63.89-6.25Q63.94-8.65 65.89-11.05L65.89-11.05Q67.79-13.35 69.37-14.3 70.94-15.25 73.69-15.5L73.69-15.5Q74.29-15.5 75.42-15.7 76.54-15.9 76.54-16.25L76.54-16.25Q76.54-16.95 75.92-17.53 75.29-18.1 73.39-18.1L73.39-18.1Q72.69-18.1 71.29-18L71.29-18Q69.89-17.9 69.34-17.9L69.34-17.9Q67.64-17.9 66.89-18.45L66.89-18.45Q66.69-18.55 66.69-19.4L66.69-19.4Q66.69-20.9 67.74-21.3L67.74-21.3Q69.89-22.1 72.19-22.15L72.19-22.15Q75.09-22.15 77.57-20.88 80.04-19.6 81.19-17.7L81.19-17.7Q82.34-15.8 82.69-12.45L82.69-12.45Q83.09-8.7 83.09-2.9L83.09-2.9Q83.09-1.3 82.64-1.05L82.64-1.05Q82.24-0.8 81.89-0.8L81.89-0.8Q81.44-0.8 81.07-1.07 80.69-1.35 80.24-1.85L80.24-1.85Q79.79-2.4 79.44-2.55L79.44-2.55ZM71.54-3.15Q73.89-3.85 76.14-5.4L76.14-5.4Q76.64-5.75 77.04-6.3 77.44-6.85 77.54-7L77.54-7Q77.64-7.15 77.72-7.88 77.79-8.6 77.74-9.05L77.74-9.05Q77.69-9.2 77.57-9.85 77.44-10.5 77.19-11L77.19-11Q76.94-11.4 76.39-11.75 75.84-12.1 75.39-12.05L75.39-12.05Q74.44-12 73.34-11.35 72.24-10.7 71.29-9.6L71.29-9.6Q70.34-8.45 69.82-7.28 69.29-6.1 69.29-5.1L69.29-5.1Q69.39-3.75 70.04-3.3L70.04-3.3Q70.39-3.05 70.89-3.05L70.89-3.05Q71.29-3.05 71.54-3.15L71.54-3.15ZM87.59-18.65Q87.24-19.05 87.12-19.5 86.99-19.95 86.89-20.75L86.89-20.75Q87.34-21.8 88.54-21.8L88.54-21.8Q89.14-21.7 89.39-21.7L89.39-21.7Q90.39-21.7 90.64-22.3 90.89-22.9 90.89-23.7 90.89-24.5 90.89-24.95L90.89-24.95 91.04-27.95Q91.09-28.95 91.17-30.43 91.24-31.9 91.34-33.85L91.34-33.85Q91.39-34.9 91.87-35.4 92.34-35.9 93.19-35.9L93.19-35.9Q93.79-35.9 94.14-35.8L94.14-35.8Q96.19-35.35 96.89-34.5 97.59-33.65 97.84-31.95L97.84-31.95Q97.89-31.6 97.74-30.5L97.74-30.5 96.84-22.7Q96.79-22.4 96.69-21.98 96.59-21.55 96.59-21.35L96.59-21.35Q96.59-20.9 97.09-20.75 97.59-20.6 98.94-20.65L98.94-20.65Q101.24-21.15 102.44-21.3L102.44-21.3Q102.69-21.35 103.24-21.35L103.24-21.35Q103.84-21.35 104.04-21.2L104.04-21.2Q104.24-21.1 104.37-20.63 104.49-20.15 104.49-19.55L104.49-19.55Q104.49-19 104.37-18.55 104.24-18.1 104.04-18.05L104.04-18.05Q102.69-17.65 100.84-17.4L100.84-17.4Q98.64-17 97.59-16.7L97.59-16.7Q97.04-16.55 96.49-15.95 95.94-15.35 95.89-14.85L95.89-14.85Q95.79-12.4 95.74-9.85L95.74-9.85Q95.69-7.9 95.89-5.95L95.89-5.95Q96.04-4.3 96.54-3.58 97.04-2.85 98.04-2.85L98.04-2.85Q98.84-2.85 100.34-3.4L100.34-3.4Q101.14-3.75 101.74-3.75L101.74-3.75Q102.69-3.75 103.09-2.7L103.09-2.7Q103.24-2.35 103.24-2L103.24-2Q103.24-1.35 102.77-0.95 102.29-0.55 101.49-0.25L101.49-0.25Q99.99 0.3 98.44 0.35L98.44 0.35Q96.34 0.35 94.49-0.68 92.64-1.7 91.57-3.55 90.49-5.4 90.64-7.8L90.64-7.8Q90.69-8.75 90.69-10.8L90.69-10.8Q90.69-14.05 90.44-17.4L90.44-17.4Q90.39-17.7 90.09-17.82 89.79-17.95 89.09-18.1L89.09-18.1Q87.94-18.3 87.59-18.65L87.59-18.65ZM123.64-2.55Q123.19-2.75 122.74-2.75L122.74-2.75Q122.29-2.75 121.96-2.53 121.64-2.3 121.24-1.85L121.24-1.85Q120.64-1.25 119.99-0.85L119.99-0.85Q119.39-0.5 117.79-0.2L117.79-0.2Q117.09-0.1 116.64-0.1L116.64-0.1Q114.54-0.1 112.26-1.03 109.99-1.95 109.04-3.25L109.04-3.25Q108.04-4.65 108.09-6.25L108.09-6.25Q108.14-8.65 110.09-11.05L110.09-11.05Q111.99-13.35 113.56-14.3 115.14-15.25 117.89-15.5L117.89-15.5Q118.49-15.5 119.61-15.7 120.74-15.9 120.74-16.25L120.74-16.25Q120.74-16.95 120.11-17.53 119.49-18.1 117.59-18.1L117.59-18.1Q116.89-18.1 115.49-18L115.49-18Q114.09-17.9 113.54-17.9L113.54-17.9Q111.84-17.9 111.09-18.45L111.09-18.45Q110.89-18.55 110.89-19.4L110.89-19.4Q110.89-20.9 111.94-21.3L111.94-21.3Q114.09-22.1 116.39-22.15L116.39-22.15Q119.29-22.15 121.76-20.88 124.24-19.6 125.39-17.7L125.39-17.7Q126.54-15.8 126.89-12.45L126.89-12.45Q127.29-8.7 127.29-2.9L127.29-2.9Q127.29-1.3 126.84-1.05L126.84-1.05Q126.44-0.8 126.09-0.8L126.09-0.8Q125.64-0.8 125.26-1.07 124.89-1.35 124.44-1.85L124.44-1.85Q123.99-2.4 123.64-2.55L123.64-2.55ZM115.74-3.15Q118.09-3.85 120.34-5.4L120.34-5.4Q120.84-5.75 121.24-6.3 121.64-6.85 121.74-7L121.74-7Q121.84-7.15 121.91-7.88 121.99-8.6 121.94-9.05L121.94-9.05Q121.89-9.2 121.76-9.85 121.64-10.5 121.39-11L121.39-11Q121.14-11.4 120.59-11.75 120.04-12.1 119.59-12.05L119.59-12.05Q118.64-12 117.54-11.35 116.44-10.7 115.49-9.6L115.49-9.6Q114.54-8.45 114.01-7.28 113.49-6.1 113.49-5.1L113.49-5.1Q113.59-3.75 114.24-3.3L114.24-3.3Q114.59-3.05 115.09-3.05L115.09-3.05Q115.49-3.05 115.74-3.15L115.74-3.15Z" opacity="1" transform="matrix(1,0,0,1,0,0)" fill="#000000" class="wordmark-text-0" data-fill-palette-color="primary" id="text-0"></path></svg></g></svg></g><g transform="matrix(1,0,0,1,0,211.65153609596172)"><svg viewBox="0 0 395.52 52.29955737400037" height="52.29955737400037" width="395.52"><g transform="matrix(1,0,0,1,0,0)"><svg width="395.52" viewBox="2.35 -35.1 268.83 35.550000000000004" height="52.29955737400037" data-palette-color="#3d3028"><path d="M27.55-4.4Q28.55-3.8 28.55-2.9L28.55-2.9Q28.55-2.05 28.05-1.35 27.55-0.65 26.65-0.65L26.65-0.65Q26.25-0.65 25.78-0.83 25.3-1 25-1.2L25-1.2 8.4-11.65Q8.35-8 8.35-1.5L8.35-1.5Q8.35-0.65 7.85-0.2 7.35 0.25 6.5 0.25L6.5 0.25Q5.55 0.25 5.03-0.28 4.5-0.8 4.5-1.8L4.5-1.8 4.5-17.6Q4.5-20.5 4.4-24.9L4.4-24.9 4.35-27.9 4.2-27.85Q3.9-27.75 3.75-27.75L3.75-27.75Q3-27.75 2.68-28.38 2.35-29 2.35-29.85L2.35-29.85Q2.35-30.95 3.85-31.75L3.85-31.75 4.3-31.95 4.3-33.35Q4.3-34.2 4.8-34.65 5.3-35.1 6.15-35.1L6.15-35.1Q6.95-35.1 7.45-34.75 7.95-34.4 7.95-33.85L7.95-33.85 7.95-33.6Q11.5-35 15.35-35L15.35-35Q19.5-35 22.63-33.7 25.75-32.4 27.43-30.05 29.1-27.7 29.1-24.55L29.1-24.55Q29.1-21.15 27.18-18.82 25.25-16.5 22.08-15.33 18.9-14.15 15.1-14.15L15.1-14.15Q13.3-14.15 10.9-14.75L10.9-14.75 27.55-4.4ZM15.6-31.45Q13.8-31.45 12-31.03 10.2-30.6 8-29.65L8-29.65Q8.1-27.75 8.1-26.85L8.1-26.85Q8.35-22.75 8.4-18.3L8.4-18.3Q11.1-17.55 14.7-17.55L14.7-17.55Q19.4-17.55 22.15-19.35 24.9-21.15 24.9-24.4L24.9-24.4Q24.9-27.5 22.33-29.48 19.75-31.45 15.6-31.45L15.6-31.45ZM48.05 0.2Q43.95 0.2 40.97-1.58 38-3.35 36.47-6.28 34.95-9.2 34.95-12.65L34.95-12.65Q34.95-16.2 36.55-19.18 38.15-22.15 41.1-23.9 44.05-25.65 47.9-25.65L47.9-25.65Q51.3-25.65 54-24.28 56.7-22.9 58.2-20.45 59.7-18 59.7-14.85L59.7-14.85Q59.7-13.35 59.35-12.73 59-12.1 57.6-12.05L57.6-12.05 38.55-11.65Q38.55-9.75 39.7-7.75 40.85-5.75 42.97-4.4 45.1-3.05 47.9-3.05L47.9-3.05Q50-3.05 51.5-3.68 53-4.3 53.85-5.1 54.7-5.9 55.9-7.35L55.9-7.35Q56.25-7.8 57-7.8L57-7.8Q57.65-7.8 58.22-7.3 58.8-6.8 58.8-6.15L58.8-6.15Q58.8-5.65 58.4-5.1L58.4-5.1Q56.8-2.9 54.52-1.35 52.25 0.2 48.05 0.2L48.05 0.2ZM38.55-14.65L55.95-15.1Q56.45-15.1 56.45-15.8L56.45-15.8Q56.45-18.8 54.05-20.68 51.65-22.55 48-22.55L48-22.55Q45.25-22.55 43.1-21.15 40.95-19.75 39.75-17.85 38.55-15.95 38.55-14.65L38.55-14.65ZM75.25 0.25Q71.85 0.25 69.45-1.43 67.05-3.1 65.7-5.7L65.7-5.7Q65.35-6.4 65.35-6.65L65.35-6.65Q65.35-7.35 65.97-7.88 66.6-8.4 67.35-8.4L67.35-8.4Q67.85-8.4 68.12-8.13 68.4-7.85 68.9-7.15L68.9-7.15Q70.15-5.25 71.55-4.13 72.95-3 75.25-3L75.25-3Q77.4-3 78.82-4.05 80.25-5.1 80.25-6.7L80.25-6.7Q80.25-7.85 79.47-8.65 78.7-9.45 77.57-9.95 76.45-10.45 74.35-11.2L74.35-11.2Q71.7-12.15 70.07-12.93 68.45-13.7 67.3-15.13 66.15-16.55 66.15-18.75L66.15-18.75Q66.15-20.7 67.22-22.38 68.3-24.05 70.3-25.05 72.3-26.05 74.9-26.05L74.9-26.05Q77.5-26.05 79.5-25.05 81.5-24.05 82.6-22.4 83.7-20.75 83.7-18.75L83.7-18.75Q83.7-17.75 83.32-17.3 82.95-16.85 82-16.85L82-16.85Q81-16.85 80.67-17.23 80.35-17.6 80.3-18.2L80.3-18.2Q80.1-20.55 78.65-21.68 77.2-22.8 74.9-22.8L74.9-22.8Q72.2-22.8 71.07-21.53 69.95-20.25 69.95-18.8L69.95-18.8Q69.95-17.1 71.42-16.18 72.9-15.25 76-14.15L76-14.15Q78.65-13.2 80.25-12.4 81.85-11.6 82.97-10.2 84.1-8.8 84.1-6.7L84.1-6.7Q84.1-3.45 81.55-1.6 79 0.25 75.25 0.25L75.25 0.25ZM105.09-8.15Q105.99-8.15 106.37-7.73 106.74-7.3 106.74-6.2L106.74-6.2Q106.74-3.6 105.02-1.8 103.29 0 100.59 0L100.59 0Q96.84 0 95.22-3.3 93.59-6.6 93.59-13.55L93.59-13.55Q93.59-16.15 93.84-19.5L93.84-19.5Q93.29-19.55 90.74-19.75L90.74-19.75Q89.24-19.9 89.24-21.4L89.24-21.4Q89.24-22.9 90.69-22.9L90.69-22.9Q91.09-22.9 92.39-22.8L92.39-22.8Q93.49-22.7 94.09-22.7L94.09-22.7Q94.44-26.4 95.29-32L95.29-32Q95.39-32.75 95.82-33.13 96.24-33.5 97.19-33.5L97.19-33.5Q98.14-33.5 98.69-33 99.24-32.5 99.14-31.75L99.14-31.75 98.89-30.1Q98.14-24.3 97.94-22.5L97.94-22.5 101.94-22.4Q102.69-22.4 103.07-22.1 103.44-21.8 103.44-21.05L103.44-21.05Q103.44-20.1 103.07-19.78 102.69-19.45 101.64-19.4L101.64-19.4Q100.09-19.35 97.64-19.35L97.64-19.35Q97.39-16.2 97.39-13.55L97.39-13.55Q97.39-8.7 98.17-5.95 98.94-3.2 100.99-3.2L100.99-3.2Q102.09-3.2 102.74-4.05 103.39-4.9 103.49-6.6L103.49-6.6Q103.54-7.4 103.82-7.78 104.09-8.15 105.09-8.15L105.09-8.15ZM136.09-3.25Q136.79-3.15 137.14-2.85 137.49-2.55 137.49-1.75L137.49-1.75Q137.49-1 137.12-0.55 136.74-0.1 136.09-0.1L136.09-0.1Q134.04-0.1 133.07-0.75 132.09-1.4 131.39-3.2L131.39-3.2Q129.14 0.45 123.39 0.45L123.39 0.45Q119.34 0.45 116.84-1.35 114.34-3.15 113.27-5.93 112.19-8.7 112.19-11.8L112.19-11.8Q112.19-15.15 113.54-18.1 114.89-21.05 117.52-22.85 120.14-24.65 123.79-24.65L123.79-24.65Q126.29-24.65 128.14-23.65 129.99-22.65 131.04-20.85L131.04-20.85 131.24-22.5Q131.34-24.35 132.94-24.35L132.94-24.35Q133.94-24.35 134.47-23.88 134.99-23.4 134.89-22.75L134.89-22.75 134.74-21.5Q134.39-19.4 134.24-17.15L134.24-17.15Q134.09-15.25 134.09-12.05L134.09-12.05 134.09-8.6Q134.09-6.45 134.22-5.43 134.34-4.4 134.74-3.85 135.14-3.3 136.09-3.25L136.09-3.25ZM130.29-8.65Q130.34-11 130.34-14.7L130.34-14.7Q130.34-17.15 129.29-18.68 128.24-20.2 126.74-20.85 125.24-21.5 123.89-21.5L123.89-21.5Q121.24-21.5 119.47-20 117.69-18.5 116.87-16.25 116.04-14 116.04-11.8L116.04-11.8Q116.04-8.3 117.77-5.53 119.49-2.75 123.44-2.75L123.44-2.75Q126.39-2.75 128.32-4.28 130.24-5.8 130.29-8.65L130.29-8.65ZM163.39-5.5Q163.39-4.55 163.61-3.9 163.84-3.25 164.19-2.68 164.54-2.1 164.54-1.9L164.54-1.9Q164.54-1.35 163.99-0.85 163.44-0.35 162.94-0.35L162.94-0.35Q161.94-0.35 161.16-1.6 160.39-2.85 160.39-4L160.39-4 160.39-4.7Q159.34-2.4 157.16-1.2 154.99 0 152.19 0L152.19 0Q147.94 0 145.84-2.9 143.74-5.8 143.74-11.35L143.74-11.35 143.74-23.7Q143.74-24.35 144.26-24.75 144.79-25.15 145.59-25.15L145.59-25.15Q146.44-25.15 146.99-24.75 147.54-24.35 147.54-23.7L147.54-23.7 147.54-11.25Q147.54-7.05 148.74-5.1 149.94-3.15 152.59-3.15L152.59-3.15Q159.34-3.15 159.34-15.4L159.34-15.4 159.34-23.75Q159.34-24.55 159.84-25 160.34-25.45 161.19-25.45L161.19-25.45Q162.09-25.45 162.64-25 163.19-24.55 163.19-23.75L163.19-23.75 163.39-5.5ZM183.09-25.7Q186.29-25.7 188.09-23.68 189.89-21.65 189.89-18.75L189.89-18.75Q189.89-16 188.24-14.43 186.59-12.85 183.99-12.85L183.99-12.85Q182.99-12.85 182.56-13.15 182.14-13.45 182.14-14.25L182.14-14.25Q182.14-15.55 183.39-15.6L183.39-15.6Q186.64-15.9 186.64-18.8L186.64-18.8Q186.64-20.35 185.79-21.45 184.94-22.55 183.04-22.55L183.04-22.55Q181.04-22.55 179.56-20.85 178.09-19.15 177.24-16.63 176.39-14.1 176.24-11.65L176.24-11.65Q175.94-7.05 175.94-2.95L175.94-2.95Q175.94-0.9 175.56-0.25 175.19 0.4 174.09 0.4L174.09 0.4Q172.99 0.4 172.56-0.13 172.14-0.65 172.14-1.95L172.14-1.95 172.09-11.5Q172.09-14.8 171.59-20.2L171.59-20.2Q171.29-23.35 171.24-24.7L171.24-24.7Q171.19-25.5 171.69-25.93 172.19-26.35 173.09-26.35L173.09-26.35Q174.64-26.35 174.74-24.85L174.74-24.85Q175.04-21.7 175.09-18.7L175.09-18.7Q175.94-22 178.04-23.85 180.14-25.7 183.09-25.7L183.09-25.7ZM219.68-3.25Q220.38-3.15 220.73-2.85 221.08-2.55 221.08-1.75L221.08-1.75Q221.08-1 220.71-0.55 220.33-0.1 219.68-0.1L219.68-0.1Q217.63-0.1 216.66-0.75 215.68-1.4 214.98-3.2L214.98-3.2Q212.73 0.45 206.98 0.45L206.98 0.45Q202.93 0.45 200.43-1.35 197.93-3.15 196.86-5.93 195.78-8.7 195.78-11.8L195.78-11.8Q195.78-15.15 197.13-18.1 198.48-21.05 201.11-22.85 203.73-24.65 207.38-24.65L207.38-24.65Q209.88-24.65 211.73-23.65 213.58-22.65 214.63-20.85L214.63-20.85 214.83-22.5Q214.93-24.35 216.53-24.35L216.53-24.35Q217.53-24.35 218.06-23.88 218.58-23.4 218.48-22.75L218.48-22.75 218.33-21.5Q217.98-19.4 217.83-17.15L217.83-17.15Q217.68-15.25 217.68-12.05L217.68-12.05 217.68-8.6Q217.68-6.45 217.81-5.43 217.93-4.4 218.33-3.85 218.73-3.3 219.68-3.25L219.68-3.25ZM213.88-8.65Q213.93-11 213.93-14.7L213.93-14.7Q213.93-17.15 212.88-18.68 211.83-20.2 210.33-20.85 208.83-21.5 207.48-21.5L207.48-21.5Q204.83-21.5 203.06-20 201.28-18.5 200.46-16.25 199.63-14 199.63-11.8L199.63-11.8Q199.63-8.3 201.36-5.53 203.08-2.75 207.03-2.75L207.03-2.75Q209.98-2.75 211.91-4.28 213.83-5.8 213.88-8.65L213.88-8.65ZM239.93-25.45Q248.38-25.45 248.38-13.5L248.38-13.5 248.38-1.8Q248.38-0.05 246.53-0.05L246.53-0.05Q244.53-0.05 244.53-1.75L244.53-1.75 244.53-13.55Q244.53-17.95 243.53-20.03 242.53-22.1 239.93-22.1L239.93-22.1Q237.18-22.1 235.43-20 233.68-17.9 232.98-14.5L232.98-14.5Q232.53-12.2 232.53-8.85L232.53-8.85 232.58-1.45Q232.58-0.75 232.08-0.38 231.58 0 230.73 0L230.73 0Q229.78 0 229.28-0.4 228.78-0.8 228.78-1.45L228.78-1.45Q228.78-5.9 228.58-12.3L228.58-12.3Q228.43-16 228.43-18.85L228.43-18.85Q228.43-20.1 228.16-20.83 227.88-21.55 227.08-22.85L227.08-22.85Q226.88-23.15 226.88-23.55L226.88-23.55Q226.88-24.15 227.56-24.68 228.23-25.2 228.88-25.2L228.88-25.2Q229.53-25.2 230.23-24.25L230.23-24.25Q230.78-23.45 231.26-22.33 231.73-21.2 231.73-20.2L231.73-20.2 231.73-19.65Q232.63-22.15 234.63-23.8 236.63-25.45 239.93-25.45L239.93-25.45ZM269.53-8.15Q270.43-8.15 270.8-7.73 271.18-7.3 271.18-6.2L271.18-6.2Q271.18-3.6 269.45-1.8 267.73 0 265.03 0L265.03 0Q261.28 0 259.65-3.3 258.03-6.6 258.03-13.55L258.03-13.55Q258.03-16.15 258.28-19.5L258.28-19.5Q257.73-19.55 255.18-19.75L255.18-19.75Q253.68-19.9 253.68-21.4L253.68-21.4Q253.68-22.9 255.13-22.9L255.13-22.9Q255.53-22.9 256.83-22.8L256.83-22.8Q257.93-22.7 258.53-22.7L258.53-22.7Q258.88-26.4 259.73-32L259.73-32Q259.83-32.75 260.25-33.13 260.68-33.5 261.63-33.5L261.63-33.5Q262.58-33.5 263.13-33 263.68-32.5 263.58-31.75L263.58-31.75 263.33-30.1Q262.58-24.3 262.38-22.5L262.38-22.5 266.38-22.4Q267.13-22.4 267.5-22.1 267.88-21.8 267.88-21.05L267.88-21.05Q267.88-20.1 267.5-19.78 267.13-19.45 266.08-19.4L266.08-19.4Q264.53-19.35 262.08-19.35L262.08-19.35Q261.83-16.2 261.83-13.55L261.83-13.55Q261.83-8.7 262.6-5.95 263.38-3.2 265.43-3.2L265.43-3.2Q266.53-3.2 267.18-4.05 267.83-4.9 267.93-6.6L267.93-6.6Q267.98-7.4 268.25-7.78 268.53-8.15 269.53-8.15L269.53-8.15Z" opacity="1" transform="matrix(1,0,0,1,0,0)" fill="#000000" class="slogan-text-1" data-fill-palette-color="secondary" id="text-1"></path></svg></g></svg></g></svg></g></svg></g><g transform="matrix(1,0,0,1,76.53311999999997,0)"><svg viewBox="0 0 244.43135999999998 217.27231999999998" height="217.27231999999998" width="244.43135999999998"><g><svg xmlns="http://www.w3.org/2000/svg" xmlns:xlink="http://www.w3.org/1999/xlink" version="1.1" x="0" y="0" viewBox="0 0 504 448" style="enable-background:new 0 0 504 448;" xml:space="preserve" height="217.27231999999998" width="244.43135999999998" class="icon-icon-0" data-fill-palette-color="accent" id="icon-0"><path d="M124 244h44c4.411 0 8-3.589 8-8v-16c0-4.411-3.589-8-8-8h-44c-4.411 0-8 3.589-8 8v16C116 240.411 119.589 244 124 244zM124 220h44l0.005 16H124V220zM168 256c-4.411 0-8 3.589-8 8v28c0 4.411 3.589 8 8 8h8c4.411 0 8-3.589 8-8v-28c0-4.411-3.589-8-8-8H168zM168 292v-28h8l0.005 28H168zM500 36c2.209 0 4-1.791 4-4s-1.791-4-4-4H392V8c0-4.411-3.589-8-8-8H120c-4.411 0-8 3.589-8 8v20H4c-2.209 0-4 1.791-4 4s1.791 4 4 4h24v44H4c-2.209 0-4 1.791-4 4s1.791 4 4 4h53.089c-21.132 14.155-42.574 32.099-53.557 51.842C1.221 143.994 0 148.706 0 153.468V184c0 4.411 3.589 8 8 8h80v104.431C82.914 291.234 75.829 288 68 288c-15.439 0-28 12.561-28 28v24H8c-4.411 0-8 3.589-8 8v8c0 4.411 3.589 8 8 8h32v8c-4.411 0-8 3.589-8 8v8c0 4.411 3.589 8 8 8v16H4c-2.209 0-4 1.791-4 4s1.791 4 4 4h36v7.199l-11.157 14.345c-0.938 1.206-1.107 2.841-0.436 4.214C29.078 447.13 30.473 448 32 448h72c1.527 0 2.922-0.87 3.593-2.242 0.672-1.373 0.503-3.008-0.436-4.214L96 427.199V420h24v16c0 2.209 1.791 4 4 4s4-1.791 4-4v-16h28v16c0 2.209 1.791 4 4 4s4-1.791 4-4v-16h176v16c0 2.209 1.791 4 4 4s4-1.791 4-4v-16h28v16c0 2.209 1.791 4 4 4s4-1.791 4-4v-16h24v7.199l-11.157 14.345c-0.938 1.206-1.107 2.841-0.436 4.214C397.078 447.13 398.473 448 400 448h72c1.527 0 2.922-0.87 3.593-2.242 0.672-1.373 0.503-3.008-0.436-4.214L464 427.199V420h36c2.209 0 4-1.791 4-4s-1.791-4-4-4h-36v-16c4.411 0 8-3.589 8-8v-8c0-4.411-3.589-8-8-8v-8h32c4.411 0 8-3.589 8-8v-8c0-4.411-3.589-8-8-8h-32v-24c0-14.081-10.449-25.762-24-27.71V288c0-4.411-3.589-8-8-8h-20v-52c0-4.411-3.589-8-8-8h-24v-28h116c4.411 0 8-3.589 8-8v-30.532c0-4.762-1.221-9.474-3.531-13.626-10.984-19.743-32.425-37.687-53.557-51.842H500c2.209 0 4-1.791 4-4s-1.791-4-4-4h-24V36H500zM56 80H36V36h20V80zM420 36h20v44h-5.608c-4.994-3.049-9.841-5.849-14.392-8.376V36zM392 36h20v31.291c-9.164-4.839-16.394-8.239-20-9.882V36zM120 8h264v48H120V8zM92 36h20v21.409c-3.606 1.643-10.836 5.043-20 9.882V36zM64 36h20v35.624c-4.551 2.527-9.397 5.327-14.392 8.376H64V36zM48 316c0-11.028 8.972-20 20-20s20 8.972 20 20v24H48V316zM8 356v-8h120l0.005 8H8zM88 364v8h-8v-8H88zM80 396h8v20.913l-2.523-3.244C81.945 409.129 80 403.46 80 397.707V396zM56 364v8h-8v-8H56zM40 380h16v8H40V380zM56 396v1.707c0 5.753-1.945 11.422-5.477 15.962L48 416.913V396H56zM40.179 440l16.659-21.419C61.456 412.644 64 405.229 64 397.707V364h8v33.707c0 7.522 2.544 14.937 7.162 20.874L95.821 440H40.179zM80 388v-8h16v8H80zM156 412h-28v-8h28V412zM124 396c-2.206 0-4-1.794-4-4s1.794-4 4-4h36l0.005 8H124zM162.551 380.424c-0.084-0.028-0.167-0.058-0.253-0.084l11.824-57.456 3.918 0.807c1.047 0.215 1.946 0.825 2.534 1.718s0.793 1.96 0.577 3.006l-10.218 49.651c-0.215 1.047-0.825 1.946-1.718 2.534-0.893 0.587-1.963 0.79-3.006 0.577L162.551 380.424zM196 412h-32v-9.083c2.387-1.386 4-3.964 4-6.917v-6.779c1.984-0.16 3.907-0.815 5.616-1.941 2.677-1.763 4.507-4.463 5.153-7.602l10.218-49.651c0.646-3.14 0.031-6.343-1.732-9.02-1.763-2.677-4.463-4.507-7.602-5.153l-3.918-0.807c-2.097-0.431-4.229-0.021-6.014 1.155-1.785 1.176-3.005 2.976-3.436 5.068l-11.83 57.489c-0.085 0.416-0.127 0.829-0.147 1.239H124c-6.617 0-12 5.383-12 12 0 5.213 3.347 9.647 8 11.3v8.7H96v-16c4.411 0 8-3.589 8-8v-8c0-4.411-3.589-8-8-8v-8h32c4.411 0 8-3.589 8-8v-8c0-4.411-3.589-8-8-8H96V192h100V412zM264 412h-60V308h60V412zM268 300h-64v-8h64V300zM235.885 264.596c0.119 0.071 0.242 0.136 0.367 0.194l14.431 6.729c0.816 0.554 1.317 1.491 1.317 2.484V284h-32v-40h12v13.735C232 260.529 233.488 263.158 235.885 264.596zM340 412h-68V306.917c2.387-1.386 4-3.964 4-6.917v-8c0-4.411-3.589-8-8-8h-8v-9.997c0-3.843-2.047-7.457-5.341-9.434-0.119-0.071-0.241-0.136-0.367-0.194L240 257.711V244c0-4.411-3.589-8-8-8h-12c-4.411 0-8 3.589-8 8v40h-8v-92h168v28h-24c-4.411 0-8 3.589-8 8v20c0 4.411 3.589 8 8 8h24v8h-16c-4.411 0-8 3.589-8 8v8h-16c-4.411 0-8 3.589-8 8v27.944c-2.989 0.707-5.558 2.488-7.255 5.064-1.764 2.677-2.379 5.88-1.732 9.02l10.218 49.651c0.646 3.139 2.477 5.839 5.153 7.602 1.709 1.126 3.632 1.78 5.616 1.941V396c0 2.953 1.613 5.532 4 6.917V412zM372 228v20h-24v-20H372zM372 272v8h-16v-8H372zM337.778 381.18c-1.044 0.211-2.104 0.006-2.994-0.58-0.893-0.588-1.503-1.487-1.718-2.534l-10.218-49.651c-0.216-1.046-0.011-2.113 0.577-3.006s1.487-1.503 2.534-1.718l3.918-0.806 11.816 57.457L337.778 381.18zM337.714 321.271c-0.431-2.093-1.65-3.893-3.436-5.068-0.711-0.469-1.48-0.81-2.278-1.031V288h40v53.083c-2.387 1.386-4 3.964-4 6.917v8c0 2.953 1.613 5.532 4 6.917V380h-22.309c-0.02-0.411-0.062-0.825-0.147-1.242L337.714 321.271zM376 412h-28v-8h28V412zM380 396h-36v-8h36c2.206 0 4 1.794 4 4S382.206 396 380 396zM408 412h-24v-8.7c4.653-1.653 8-6.087 8-11.3 0-6.617-5.383-12-12-12v-16h28v8c-4.411 0-8 3.589-8 8v8c0 4.411 3.589 8 8 8V412zM408 380h16v8h-16V380zM416 372v-8h8v8H416zM424 396v1.707c0 5.753-1.945 11.422-5.477 15.962L416 416.913V396H424zM408.179 440l16.659-21.419c4.618-5.938 7.162-13.352 7.162-20.874V364h8v33.707c0 7.522 2.544 14.937 7.162 20.874L463.821 440H408.179zM448 397.707V396h8v20.913l-2.523-3.244C449.945 409.129 448 403.46 448 397.707zM464 388h-16v-8h16V388zM448 372v-8h8v8H448zM496 348v8H376v-8H496zM436 296c11.028 0 20 8.972 20 20v24h-40v-24C416 304.972 424.972 296 436 296zM432 288v0.29c-13.551 1.947-24 13.629-24 27.71v24h-28v-52H432zM404 228v52h-24v-52H404zM496 153.468V184H8v-30.532c0-0.491 0.023-0.98 0.059-1.468h487.881C495.977 152.488 496 152.977 496 153.468zM493.479 143.73c0.049 0.088 0.091 0.18 0.139 0.27H10.383c0.048-0.089 0.09-0.181 0.139-0.27 22.96-41.268 98.049-75.998 106.331-79.73h270.294C395.429 67.733 470.519 102.463 493.479 143.73zM468 80h-20V36h20V80z" fill="#000000" data-fill-palette-color="accent"></path></svg></g></svg></g><g></g></svg></g><defs></defs></svg><rect width="160.25307271054683" height="247.2" fill="none" stroke="none" visibility="hidden"></rect></g></svg></g></svg>